<svg fill="#000000" xmlns="http://www.w3.org/2000/svg" viewBox="0 0 64 64" aria-labelledby="title" aria-describedby="desc" role="img" xmlns:xlink="http://www.w3.org/1999/xlink">
  <title>Menu Hamburger</title>
  <desc>A solid styled icon from Orion Icon Library.</desc>
  <path data-name="layer2" d="M62 12a4 4 0 0 1-4 4H6a4 4 0 0 1-4-4 4 4 0 0 1 4-4h52a4 4 0 0 1 4 4zm0 20a4 4 0 0 1-4 4H6a4 4 0 0 1-4-4 4 4 0 0 1 4-4h52a4 4 0 0 1 4 4z"></path>
  <path data-name="layer1" d="M62 52a4 4 0 0 1-4 4H6a4 4 0 0 1-4-4 4 4 0 0 1 4-4h52a4 4 0 0 1 4 4z"></path>
</svg>